<svg id="svg" version="1.1" xmlns="http://www.w3.org/2000/svg" xmlns:xlink="http://www.w3.org/1999/xlink" width="400" height="364.4444444444444" viewBox="0, 0, 400,364.4444444444444"><g id="svgg"><path id="path0" d="M185.185 2.619 C 107.021 13.564,52.349 67.512,43.712 142.222 C 42.256 154.813,41.942 155.451,35.617 158.698 C 17.372 168.063,6.890 180.111,3.225 195.926 C 1.150 204.881,1.159 261.108,3.237 270.000 C 11.172 303.957,62.324 326.021,75.364 301.111 C 78.771 294.603,78.726 295.541,79.298 218.519 C 79.618 175.461,80.150 143.582,80.597 140.741 C 87.492 96.819,119.219 59.356,161.481 45.232 C 228.908 22.699,299.937 61.896,317.414 131.282 C 320.141 142.109,320.725 158.852,320.739 226.667 C 320.752 288.129,320.949 292.827,323.786 299.255 C 335.790 326.460,389.363 304.915,396.669 269.944 C 398.494 261.206,398.495 204.635,396.670 195.926 C 393.425 180.443,382.673 168.055,364.358 158.698 C 357.949 155.424,357.600 154.740,356.310 142.963 C 348.787 74.271,298.519 19.071,231.111 5.484 C 211.022 1.434,199.003 0.685,185.185 2.619 M194.979 111.459 C 187.993 113.641,183.748 119.456,182.255 128.889 C 180.966 137.034,181.242 339.859,182.550 346.033 C 187.270 368.299,212.252 369.175,217.116 347.244 C 218.627 340.433,218.653 132.048,217.144 125.926 C 214.285 114.329,205.064 108.310,194.979 111.459 M148.063 147.643 C 141.755 150.004,138.112 154.479,136.194 162.222 C 134.484 169.129,134.729 307.047,136.462 312.640 C 142.485 332.080,165.957 331.275,170.228 311.481 C 173.479 296.410,173.035 170.109,169.692 159.172 C 166.833 149.816,156.696 144.413,148.063 147.643 M241.111 147.409 C 237.957 148.397,233.528 152.267,231.918 155.442 C 228.850 161.493,228.790 163.224,229.029 239.259 L 229.259 312.222 231.014 316.105 C 238.101 331.780,258.274 329.631,263.538 312.640 C 265.254 307.101,265.519 168.292,263.826 161.713 C 261.016 150.791,250.816 144.368,241.111 147.409 M99.301 195.002 C 90.658 199.572,89.647 203.934,89.647 236.667 C 89.647 264.281,89.979 267.536,93.353 272.994 C 100.077 283.875,117.635 281.851,122.911 269.586 C 127.156 259.718,127.187 213.453,122.955 203.882 C 118.790 194.463,107.988 190.408,99.301 195.002 M285.556 194.738 C 276.170 199.083,274.107 206.697,274.093 237.037 C 274.084 256.249,274.828 264.331,277.089 269.586 C 283.819 285.232,304.869 283.192,309.322 266.463 C 310.836 260.777,310.802 212.428,309.280 206.710 C 306.331 195.627,295.471 190.147,285.556 194.738 " stroke="none" fill="#000000" fill-rule="evenodd"></path></g></svg>